<svg id="Layer_1" data-name="Layer 1" xmlns="http://www.w3.org/2000/svg" viewBox="0 0 500 165"><defs><style>.cls-1{fill:#fff;}.cls-2{fill:#f1717f;}</style></defs><title>logo-pm</title><path class="cls-1" d="M1,76.58H30.9V88.23c5.5-7.09,13.37-13.54,25.33-13.54,11.33,0,20,5,24.55,13.85,7.39-8.5,16-13.85,28.48-13.85,18.09,0,29.11,11.33,29.11,31.16v55.86h-29.9V115.45c0-9.29-4.56-14.16-11.64-14.16s-12.28,4.87-12.28,14.16v46.26H54.66V115.45c0-9.29-4.57-14.16-11.65-14.16S30.9,106.16,30.9,115.45v46.26H1Z"/><path class="cls-1" d="M274.49,76.58h29.89V88.23c5.51-7.09,13.38-13.54,25.34-13.54,11.33,0,20,5,24.54,13.85,7.4-8.5,16.05-13.85,28.48-13.85,18.1,0,29.11,11.33,29.11,31.16v55.86H382V115.45c0-9.29-4.57-14.16-11.65-14.16S358,106.16,358,115.45v46.26h-29.9V115.45c0-9.29-4.56-14.16-11.64-14.16s-12.12,4.87-12.12,14.16v46.26H274.49Z"/><path class="cls-1" d="M423.94,151l11.17-18.1c9.76,6.45,20.46,9.76,29.27,9.76,5.2,0,7.56-1.57,7.56-4.56v-.32c0-3.3-4.73-4.72-13.69-7.24-16.84-4.4-30.22-10.07-30.22-27.22V103c0-18.1,14.48-28.17,34.15-28.17,12.43,0,25.33,3.62,35.09,9.91L487,103.65c-8.81-4.88-18.41-7.87-25.18-7.87-4.56,0-6.92,1.73-6.92,4.09v.31c0,3.31,4.88,4.88,13.85,7.56C485.62,112.46,499,118.28,499,134.8v.32c0,18.72-14,28.48-34.77,28.48A68.66,68.66,0,0,1,423.94,151Z"/><path class="cls-1" d="M40.1,26.75a16,16,0,0,1-4.45,5.66A19.22,19.22,0,0,1,29,35.83,28.06,28.06,0,0,1,20.92,37h-8.6V52.4H1V1H22a24.68,24.68,0,0,1,8.27,1.28,17.58,17.58,0,0,1,6.17,3.64,16,16,0,0,1,3.9,5.62,18.83,18.83,0,0,1,1.36,7.24v.15A18,18,0,0,1,40.1,26.75ZM30.25,19a7,7,0,0,0-2.46-5.8,10.38,10.38,0,0,0-6.73-2H12.32V26.9h9a9.22,9.22,0,0,0,6.61-2.24,7.37,7.37,0,0,0,2.35-5.55Z"/><path class="cls-1" d="M92.35,52.4l-11-16.46H72.44V52.4H61.12V1H84.64q9.18,0,14.29,4.48T104,17.93v.15A16.16,16.16,0,0,1,101,28.26,17.7,17.7,0,0,1,93,34L105.58,52.4Zm.23-33.88A6.55,6.55,0,0,0,90.22,13a10.36,10.36,0,0,0-6.54-1.84H72.44V25.94H83.9q4.2,0,6.43-2a6.71,6.71,0,0,0,2.25-5.29Z"/><path class="cls-1" d="M175.62,37a26.25,26.25,0,0,1-14.36,14.19,28.28,28.28,0,0,1-11,2.09,28,28,0,0,1-11-2.09,27.21,27.21,0,0,1-8.64-5.66A25.48,25.48,0,0,1,125,37.15a26.34,26.34,0,0,1-2-10.32v-.15a26,26,0,0,1,2.06-10.33,26.58,26.58,0,0,1,5.7-8.45,26.23,26.23,0,0,1,8.67-5.73,29.7,29.7,0,0,1,21.94,0A27,27,0,0,1,170,7.83a25.22,25.22,0,0,1,5.66,8.38,26.34,26.34,0,0,1,2,10.32v.15A26,26,0,0,1,175.62,37Zm-9.77-10.32a17.12,17.12,0,0,0-1.14-6.25,15.62,15.62,0,0,0-3.23-5.14,15.4,15.4,0,0,0-5-3.49,15,15,0,0,0-6.24-1.29A15.46,15.46,0,0,0,144,11.76a14.4,14.4,0,0,0-4.85,3.45A16.5,16.5,0,0,0,136,20.32a16.87,16.87,0,0,0-1.14,6.21v.15A17.16,17.16,0,0,0,136,32.93a15.57,15.57,0,0,0,8.16,8.63,15,15,0,0,0,6.29,1.29,15.49,15.49,0,0,0,6.24-1.25,14.3,14.3,0,0,0,4.89-3.46,16.27,16.27,0,0,0,3.16-5.1,16.87,16.87,0,0,0,1.14-6.21Z"/><path class="cls-1" d="M224.57,31.9V52.4H213.25V32.12L193.48,1h13.23L219,21.61,231.48,1h12.86Z"/><path class="cls-1" d="M262.42,52.4V1h38.73V11H273.59V21.46h24.26V31.53H273.59v10.8h27.93V52.4Z"/><path class="cls-1" d="M363.77,47.92a24.13,24.13,0,0,1-10.22,4.74,33.91,33.91,0,0,1-6.76.62,26.69,26.69,0,0,1-10.51-2.05,26.07,26.07,0,0,1-8.38-5.63,25.69,25.69,0,0,1-5.51-8.41,27.18,27.18,0,0,1-2-10.36v-.15A26.69,26.69,0,0,1,327.9,7.9a25.43,25.43,0,0,1,8.46-5.73A27.43,27.43,0,0,1,347.23.07a34.17,34.17,0,0,1,6.58.59,26.76,26.76,0,0,1,5.4,1.62,23.85,23.85,0,0,1,4.49,2.5A31.2,31.2,0,0,1,367.52,8l-7.2,8.31a27.16,27.16,0,0,0-6.14-4.27,15.6,15.6,0,0,0-7-1.54,14.38,14.38,0,0,0-6,1.25,14.07,14.07,0,0,0-4.74,3.45,16.32,16.32,0,0,0-3.09,5.11,17.49,17.49,0,0,0-1.1,6.21v.15a17.79,17.79,0,0,0,1.1,6.25,16.41,16.41,0,0,0,3.05,5.14,14.26,14.26,0,0,0,4.71,3.49,14.1,14.1,0,0,0,6.06,1.29,15.73,15.73,0,0,0,7.46-1.62,29.21,29.21,0,0,0,6.06-4.41l7.21,7.28A38.46,38.46,0,0,1,363.77,47.92Z"/><path class="cls-1" d="M411.25,11.39v41H399.93v-41H384.28V1H426.9V11.39Z"/><path class="cls-1" d="M496.94,37a26.23,26.23,0,0,1-14.37,14.19,29.81,29.81,0,0,1-21.93,0A27.21,27.21,0,0,1,452,45.53a25.48,25.48,0,0,1-5.66-8.38,26.34,26.34,0,0,1-2-10.32v-.15a26,26,0,0,1,2.06-10.33,26.72,26.72,0,0,1,5.69-8.45,26.38,26.38,0,0,1,8.68-5.73,29.68,29.68,0,0,1,21.93,0,27,27,0,0,1,8.64,5.66A25.22,25.22,0,0,1,497,16.21a26.34,26.34,0,0,1,2,10.32v.15A26,26,0,0,1,496.94,37Zm-9.77-10.32A17.12,17.12,0,0,0,486,20.43a15.48,15.48,0,0,0-3.24-5.14,15.25,15.25,0,0,0-5-3.49,15,15,0,0,0-6.24-1.29,15.46,15.46,0,0,0-6.29,1.25,14.4,14.4,0,0,0-4.85,3.45,16.32,16.32,0,0,0-3.16,5.11,16.87,16.87,0,0,0-1.14,6.21v.15a17.16,17.16,0,0,0,1.14,6.25,15.57,15.57,0,0,0,8.16,8.63,14.94,14.94,0,0,0,6.28,1.29A15.5,15.5,0,0,0,478,41.6a14.3,14.3,0,0,0,4.89-3.46A16.45,16.45,0,0,0,486,33a16.87,16.87,0,0,0,1.14-6.21Z"/><path class="cls-2" d="M182.47,92.66a12.62,12.62,0,0,1,8.11,2.77c3.13,2.64,5.73,5.89,8.66,8.78,2.49,2.44,4.87,3.66,7.24,3.66s4.67-1.18,7.1-3.55,4.76-5.22,7.31-7.65a14.52,14.52,0,0,1,9.94-4,12.47,12.47,0,0,1,9.11,3.75c4.81,5,4.54,12.13-1.11,17.78-10.49,10.51-21.17,20.84-32.12,31.58-2.79-2.56-5.13-4.58-7.34-6.74-8.69-8.49-17.47-16.9-26-25.59-5-5.15-5-12.09-.52-16.92a13.16,13.16,0,0,1,9.58-3.88m0-19.14a32.22,32.22,0,0,0-23.61,10c-11.52,12.41-11.15,31,.86,43.33,6.73,6.89,13.67,13.64,20.38,20.17l5.89,5.74c1.77,1.73,3.49,3.27,5.31,4.91.8.71,1.63,1.46,2.51,2.26a19.13,19.13,0,0,0,26.31-.47q4.84-4.75,9.63-9.42c7.45-7.28,15.16-14.81,22.63-22.29,12.8-12.82,13.4-32,1.4-44.53a31.8,31.8,0,0,0-22.95-9.67,33.46,33.46,0,0,0-23.12,9.25c-.44.42-.86.83-1.27,1.25-1.09-1.08-2.26-2.18-3.56-3.27a31.73,31.73,0,0,0-20.41-7.25"/></svg>